<svg id="Layer_1" data-name="Layer 1" xmlns="http://www.w3.org/2000/svg" viewBox="0 0 68.91 106.77"><defs><style>.cls-1{fill:#f4eedc;}.cls-1,.cls-2,.cls-3{stroke:#353330;stroke-miterlimit:10;}.cls-2{fill:none;}.cls-3{fill:#757269;}.cls-4{fill:#353330;}.cls-5{font-size:27px;font-family:Adelle Sans;}</style></defs><title>chef</title><path class="cls-1" d="M454.88,333.76l0.64-2.43v-4.62l0.8-2.23,0.8-3.5v-2.87l-3.34-1.43-3.18-1.43-2.39-3.34-1-4.46,1.11-1.91,0.48-3.34,0.16-2.87,0.16-2.07,0.48-2.07,0.8-1.75,1.75-2.07a1.33,1.33,0,0,1,0-2.55l1.11-2.71,1-3.18c0.13-.43.22-0.86,0.35-1.29a7.68,7.68,0,0,1,.51-1.7c0.12-.21.3-0.39,0.41-0.61a2.65,2.65,0,0,0,.15-1.49,8,8,0,0,1,1.49-.82l0.83-.46a0.94,0.94,0,0,0,.54-0.34,0.32,0.32,0,0,0,0-.12,1,1,0,0,1,.15-0.5c0.45-.68,1.7-0.43,3-0.5a8.75,8.75,0,0,0,3.06-.75l3.66-.8,3.66-1.11,2.07-1v-1.59l0.45-.32,0.25,0.2v1.38l0.25,0.28,1,0.78,1,0.73,0.6,0.38,0.85,0.4,0.93,0.48,0.45,0.38,0.48,0.53,0.28,0.58,0.23,0.55v0.38l1.16,0.13,0.68,0.15,0.68,0.25,0.48,0.23,0.28-.25v-1.63l0.35-.5,0.78-1.06,0.7-.78,0.65-.45,0.88-.5,1.38-.55,0.73-.58,0.5-.65,0.3-.5,0.2-.65v-0.58h0.15l0.18,0.18v0.55l0.18,0.63,0.18,0.48V271l0.25,0.68,0.13,0.55,1.94,1.76,1,0.5,1.28,0.6,2.84,1.31L501,277.3l2.64,1,0.73-.05s0.85,0.39,1,.48,1.1,0.52,1.31.7,0.78,0.45,1,.62a3.55,3.55,0,0,1,.5,1,10.49,10.49,0,0,1,1.08,1.56s0.31,2,.3,2.06,0.22,0.87.3,1.11a1.5,1.5,0,0,1,0,1l0.23,0.55a3.85,3.85,0,0,1,.08,1.06,1,1,0,0,0,.3.65,1.48,1.48,0,0,1,.6,1.13s0,1.44,0,1.66a5.56,5.56,0,0,0,.4,1.58c0.07,0.22.13,2.16,0.13,2.16l1,0.48a1,1,0,0,1,.53.13,0.79,0.79,0,0,1,.33.3,1.77,1.77,0,0,1,0,.78c0,0.36.4,1.69,0.45,1.94s0,0.84,0,1.13c0,0,.19.78,0.25,1s0.19,0.93.28,1.19a3.41,3.41,0,0,1,.15.73l0.25,0.75,0.13,0.7a1.27,1.27,0,0,1,0,.8c-0.09.26-.53,0.64-0.6,0.83a0.78,0.78,0,0,0,.05.65,2.48,2.48,0,0,1-.23,1.11,8.93,8.93,0,0,1-.68,1.51l-0.6,1a1.8,1.8,0,0,0-.4,1.61c-0.1.41-.2,0.76-0.28,1.06a3.54,3.54,0,0,1-.28.8,2.48,2.48,0,0,1-.48.63,1.77,1.77,0,0,1-.13.43,2,2,0,0,1-.85.91l-0.6.45c-0.11.18-.27,0.44-0.48,0.75a4.23,4.23,0,0,1-.75,1,2.3,2.3,0,0,1-1.08.48,5.66,5.66,0,0,1-1.08-.08c-0.69,0-.73,0-1.21-0.05a1.81,1.81,0,0,1-.92,0,10.93,10.93,0,0,0-1.12,0,1.27,1.27,0,0,0-.36.12l0-.33,0.13,2.23,0.15,2.46,0.2,2.64,0.15,1.31,0.05,1.48,0,1.16,0.1,2.79,0,1.47H454.88Z" transform="translate(-446.7 -227.49)"/><polyline class="cls-2" points="22.23 106.67 22.23 104.5 22.23 99.69 22.23 95.16 22.23 93.22 19.65 92.7 15.19 91.9 11.46 90.7 10.4 90.62"/><polyline class="cls-1" points="22.23 93.22 25.66 94.13 28.47 94.94 31.33 95.56 33.3 95.91 36.02 94.82 38.48 92.7 39.8 90.18 41.29 87.55 41.29 87.21 46.61 89.15 51.36 89.5 54.54 90.55 57.05 91.29 59.66 90.89 61.29 90.99"/><polyline class="cls-2" points="41.29 87.21 37.97 86.86 36.37 86.52 34.44 85.61 33.3 84.63 31.79 82.28 30.76 79.25 29.9 75.7 29.67 73.71 29.67 70.66 29.67 69.41 31.89 70.05 35.48 70.05 38.77 69.41 41.29 69.75 43.33 70.5 46.84 71.32 48.78 71.54 49.38 72.52 50.13 73.71 53.79 73.71 55.66 73.71 54.76 72.44 54.76 70.8 55.14 68.7 55.29 66.16 54.99 63.85 54.84 62.05"/><path class="cls-3" d="M478,308.33l-2.24-1.07a3.29,3.29,0,0,0-1.79-1,10.92,10.92,0,0,0-1.27,0,4.36,4.36,0,0,1-2.17-.75l-2.09-1a2.15,2.15,0,0,0-1.42-1,5,5,0,0,1-.9,0,4.08,4.08,0,0,1-1.2-1,2.8,2.8,0,0,0-1.35-.5,1.65,1.65,0,0,1-.48-0.92,5.17,5.17,0,0,0,0-1,5.52,5.52,0,0,0-.41-0.67,1.66,1.66,0,0,1,0-1.2l0.41-.67,0.78-.75a15.88,15.88,0,0,1,2.24-1.2c1.21-.53,1.89-0.64,1.94-1s-0.79-.68-1.64-1.87a5.85,5.85,0,0,1-.6-1,2.79,2.79,0,0,1-.3-1.49,2.66,2.66,0,0,1,.15-0.67,0.91,0.91,0,0,1,.45-0.75,2.14,2.14,0,0,1,.67,0,1.92,1.92,0,0,1,.67,0,1.48,1.48,0,0,1,.45.75,3.85,3.85,0,0,0,.61.92,2.62,2.62,0,0,0,.49.41l0.55,0.31,0.66,0.49,0.71,0.48,0.45,0.44,0.38,0.21,0.87,0.42,0.39,0.32,0.52,0.41,0.66,0.69,0.65,0.79,0.54,0.48,0.42,0.3,0.6,0.69L476.37,299v1.82l0.19,2.05,0.56,2.49,0.52,1.93Z" transform="translate(-446.7 -227.49)"/><polygon class="cls-3" points="28.54 43.47 28.54 42.41 28.24 41.65 27.84 41.02 27.35 40.26 26.88 39.23 26.36 37.91 26.06 37.02 25.66 36.19 25.5 35.23 24.57 34.04 23.88 32.36 23.63 31.33 23.63 30.39 23.63 29.41 23.63 28.56 24 28 24.56 28 25.5 28.3 25.88 28 26.09 27.36 26.39 26.81 26.76 26.05 27.67 24.94 28.54 23.88 29.73 22.73 30.94 22.17 32.15 21.57 34.06 21.21 35.67 21.21 37.54 21.21 39 21.47 40.46 21.77 41.56 22.27 42.57 22.83 43.53 23.73 44.23 24.69 45.04 25.9 45.74 26.9 46.2 27.61 46.2 27.96 47.1 27.56 47.91 27.51 48.21 27.91 48.21 28.62 48.21 29.37 48.21 30.13 47.91 30.98 47.61 31.89 47.35 32.9 47.1 33.6 46.7 34.26 46.4 34.91 46.25 35.56 46.1 36.47 45.44 36.82 45.14 37.18 45.04 38.48 44.74 39.19 44.33 40.1 44.08 40.9 44.03 41.73 43.67 42.65 43.03 43.55 41.85 44.3 40.91 44.68 40.37 44.99 39.38 45.63 38.68 46.41 37.9 47.47 37.55 48.66 37.13 49.31 36.11 49.38 34.86 49.17 34.44 48.1 33.71 47.15 32.65 46.19 32 45.73 31.19 45.18 30.44 44.48 29.63 43.97 29.13 43.42 28.54 43.47"/><polygon class="cls-1" points="25.03 27.74 25.22 26.91 25.22 26.13 25.22 25.52 24.55 25.27 23.64 25.27 22.66 25.13 22.19 24.16 21.83 23.13 21.59 22.07 20.41 20.94 19.88 19.7 19.88 17.64 19.88 15.45 19.11 12.97 19.11 10.2 20.47 8.13 22.54 5.65 25.22 2.34 26.97 0.98 27.8 0.51 30.81 0.75 33.3 0.81 36.18 0.81 38.78 0.51 40.55 0.51 41.32 0.86 42.97 1.99 44.74 3.76 46.52 4.82 47.88 5.83 48.7 7.13 50.12 8.6 51.12 9.66 51.12 11.02 50.71 13.44 49.41 15.39 48.41 17.7 47.17 20.47 46.52 23.13 46.34 25.79 46.34 27.38 45.64 26.79 45.24 25.81 44.7 24.9 43.79 23.82 42.68 22.95 41.6 22.07 40.42 21.63 39.11 21.46 37.09 21.13 35.7 21.13 34.36 21.06 33.3 21.19 31.59 21.57 30.21 22.24 29.17 22.88 28.19 23.75 27.18 24.9 26.34 26.01 25.7 27.56 25.63 27.74 25.03 27.74"/><ellipse class="cls-4" cx="28.3" cy="51.5" rx="1.04" ry="0.89"/><ellipse class="cls-4" cx="490.04" cy="279.82" rx="1.04" ry="1.24" transform="translate(-345.7 461.09) rotate(-76.14)"/><ellipse class="cls-4" cx="27.77" cy="64.08" rx="1.12" ry="1.1"/><ellipse class="cls-4" cx="40.5" cy="65.25" rx="1.1" ry="1.17"/><ellipse class="cls-4" cx="25.63" cy="97.29" rx="1.18" ry="1.13"/><ellipse class="cls-4" cx="37.69" cy="97.85" rx="1.27" ry="1.24"/><text class="cls-5" transform="translate(29.34 43.89)">?</text><polyline class="cls-2" points="24.24 64.08 24.68 59.37 25.04 56.54 25.04 53.38 24.64 50.14 25.62 49.85 28.3 49.13 30.27 49.13 32.45 48.54 34.44 48.1"/></svg>