<svg id="Layer_2" data-name="Layer 2" xmlns="http://www.w3.org/2000/svg" viewBox="0 0 844.75 127.05"><defs><style>.cls-1{fill:none;}.cls-1,.cls-2{stroke:#f4eedc;stroke-miterlimit:10;stroke-width:11px;}.cls-2,.cls-4{fill:#f4eedc;}.cls-3{fill:#353330;}</style></defs><title>knife</title><path class="cls-1" d="M71.5,235l12.22-3,20.14-5c9.63-2,19.7-3.83,30.21-5.45,16-2.47,31.33-4.17,45.73-5.28,7-.63,16.1-1.39,26.74-2.15,6.45-.46,18.39-1.3,33.18-2,14-.64,24.27-0.85,30.54-1,29.56-.64-1.6-0.21,67.68-1.82,23.06-.53,57.83-1.31,107.47-2.31l83.36-.83,42.59-.83h26.91l0.83,40.61,0.83,5.12-5.78,2.31a20.43,20.43,0,0,0-5.28,3.63,23.67,23.67,0,0,0-5.79,9.75A34.54,34.54,0,0,0,581.32,278c-0.05,6.4-.41,15-1.43,27.36l-2.09,11.85L557,317.5c-11.56.06-26.11,0-42.94-.27-13-.23-23.08-0.55-28-0.71-13.67-.46-27.72-1.09-54.9-2.71-35.15-2.09-52.72-3.14-74.62-5-26.49-2.25-46.64-4.51-54.81-5.45-17.49-2-33.49-3.84-55.3-7.26-12.72-2-27.25-4.8-56.29-10.4-5.7-1.1-12.61-2.45-21.63-5-6.28-1.74-11.52-3.47-19-5.94-8-2.66-12.07-4-16.67-5.78s-10.07-4.3-20.8-9.24c-11.17-5.15-14.07-6.67-16.34-7.92-2.86-1.57-5.93-3.47-12.05-7.26a62.19,62.19,0,0,1-7.59-5.28A54.84,54.84,0,0,1,71.5,235Z" transform="translate(-60.92 -195.98)"/><path class="cls-2" d="M870.11,201.48l-33.67.4h-25l-38.82,2H697.4l-36,1.61H598.27l1.65,45.73,19.44,1c8.21,0.42,13.24,1.49,26.14,3.17,5.13,0.67,12.83,1.64,22.36,2.77L693,261.35c5,0.48,12.28,1,21.1,1.13,3.86,0.05,7.65,0,15.07-.19,13.11-.28,19.67-0.42,24.19-0.74,8-.58,32-3.56,24-2.63h0l15.05-2,13.07-1.58,9.25-.69a17.64,17.64,0,0,1,7.81,1.67c0.55,0.26,1.68.85,5.77,4.46,6.81,6,8.6,8.67,9.26,10l1.58,3.17c0.32,1.21,1.5,5.06,4.36,6a15.66,15.66,0,0,0,3.39.51,23.3,23.3,0,0,0,3.21,0,14.21,14.21,0,0,0,3.71-.51,10,10,0,0,0,3.35-1.84c1-.52,2.62-1.32,4.59-2.24,2.74-1.29,3.8-1.7,5.71-2.62,1.42-.69,3.46-1.73,5.87-3.18,1.42-.79,3.38-1.93,5.63-3.43a50.27,50.27,0,0,0,7.1-5.38A43,43,0,0,0,891.5,255c3.91-5.42,6.62-9.18,7.92-14.66a28.94,28.94,0,0,0,0-13.07A32.78,32.78,0,0,0,870.11,201.48Z" transform="translate(-60.92 -195.98)"/><circle class="cls-3" cx="586.4" cy="32.07" r="8.78"/><circle class="cls-3" cx="680.05" cy="32.07" r="8.78"/><circle class="cls-3" cx="777.35" cy="32.07" r="8.78"/><path class="cls-4" d="M769.2,263.79a7.94,7.94,0,0,0,6,.85c0.78-.18,1.49-0.55,2.29-0.67l-1.6.21a2.35,2.35,0,0,1,.55,0l-1.6-.21q1.5,0.34-1.77-1.07a6.06,6.06,0,0,0,8.49,0,6.12,6.12,0,0,0,0-8.49,7.44,7.44,0,0,0-6.47-2.12c-1.18.16-2.23,0.66-3.39,0.82l1.6-.21H773l1.6,0.21q-0.9-.16.63,0.32a6.06,6.06,0,0,0-8.21,2.15,6.12,6.12,0,0,0,2.15,8.21h0Z" transform="translate(-60.92 -195.98)"/></svg>