<svg id="Layer_1" data-name="Layer 1" xmlns="http://www.w3.org/2000/svg" viewBox="0 0 68.99 125.03"><defs><style>.cls-1{font-size:120.72px;fill:#6a1916;}.cls-1,.cls-2{font-family:FontAwesome;}.cls-2{font-size:30.8px;}.cls-2,.cls-3{fill:#f4eedc;}.cls-4{fill:none;stroke:#000;stroke-miterlimit:10;}</style></defs><title>philly_pin</title><text class="cls-1" transform="translate(0 106.24)"></text><circle cx="34.68" cy="45.19" r="18.15"/><text class="cls-2" transform="translate(19.09 62.64)"></text><polygon class="cls-3" points="13.7 30.84 20.48 30.84 27.72 31.7 30.96 31.62 34.47 30.7 38.21 31.55 41.51 31.64 48.63 30.84 54.67 30.84 54.67 42.84 50.32 42.84 50.31 41.92 41.68 38.84 26.01 38.84 18.31 41.84 18.28 42.84 13.7 42.84 13.7 30.84"/><circle class="cls-3" cx="34.55" cy="62.68" r="3.61"/><rect class="cls-3" x="33.81" y="66.08" width="1.37" height="2.29"/><polyline class="cls-4" points="27.11 62.64 27.84 60.77 29.85 59.22 30.4 57.3 30.76 55.93 31.31 54.01 32.27 53 32.68 49.98"/><polyline class="cls-4" points="27 62.59 27.73 60.72 29.74 59.16 30.29 57.24 30.66 55.87 31.2 53.95 32.33 52.56 32.68 48.7"/><polyline class="cls-4" points="26.69 62.59 27.42 60.72 29.43 59.16 29.98 57.24 30.35 55.87 30.9 53.95 32.27 53 32.58 50.76"/></svg>